<svg width="637" height="149" viewBox="0 0 637 149" fill="none" xmlns="http://www.w3.org/2000/svg">
<path d="M97.072 76.112C105.605 76.112 112.475 78.672 117.68 83.792C122.971 88.912 125.616 96.5067 125.616 106.576V146H105.648V109.648C105.648 104.187 104.453 100.133 102.064 97.488C99.6747 94.7573 96.2187 93.392 91.696 93.392C86.6613 93.392 82.6507 94.9707 79.664 98.128C76.6773 101.2 75.184 105.808 75.184 111.952V146H55.216V77.136H74.288V85.2C76.9333 82.2987 80.2187 80.08 84.144 78.544C88.0693 76.9227 92.3787 76.112 97.072 76.112ZM204.37 51.024V146H185.298V138.064C180.349 144.037 173.181 147.024 163.794 147.024C157.309 147.024 151.421 145.573 146.13 142.672C140.925 139.771 136.829 135.632 133.842 130.256C130.855 124.88 129.362 118.651 129.362 111.568C129.362 104.485 130.855 98.256 133.842 92.88C136.829 87.504 140.925 83.3653 146.13 80.464C151.421 77.5627 157.309 76.112 163.794 76.112C172.583 76.112 179.453 78.8853 184.402 84.432V51.024H204.37ZM167.25 130.64C172.285 130.64 176.466 128.933 179.794 125.52C183.122 122.021 184.786 117.371 184.786 111.568C184.786 105.765 183.122 101.157 179.794 97.744C176.466 94.2453 172.285 92.496 167.25 92.496C162.13 92.496 157.906 94.2453 154.578 97.744C151.25 101.157 149.586 105.765 149.586 111.568C149.586 117.371 151.25 122.021 154.578 125.52C157.906 128.933 162.13 130.64 167.25 130.64ZM212.611 77.136H232.579V146H212.611V77.136ZM222.595 67.536C218.926 67.536 215.939 66.4693 213.635 64.336C211.331 62.2027 210.179 59.5573 210.179 56.4C210.179 53.2427 211.331 50.5973 213.635 48.464C215.939 46.3307 218.926 45.264 222.595 45.264C226.264 45.264 229.251 46.288 231.555 48.336C233.859 50.384 235.011 52.944 235.011 56.016C235.011 59.344 233.859 62.1173 231.555 64.336C229.251 66.4693 226.264 67.536 222.595 67.536ZM274.151 147.024C266.812 147.024 260.199 145.531 254.311 142.544C248.508 139.472 243.943 135.248 240.615 129.872C237.372 124.496 235.751 118.395 235.751 111.568C235.751 104.741 237.372 98.64 240.615 93.264C243.943 87.888 248.508 83.7067 254.311 80.72C260.199 77.648 266.812 76.112 274.151 76.112C281.404 76.112 287.719 77.648 293.095 80.72C298.556 83.7067 302.524 88.016 304.999 93.648L289.511 101.968C285.927 95.6533 280.764 92.496 274.023 92.496C268.818 92.496 264.508 94.2027 261.095 97.616C257.682 101.029 255.975 105.68 255.975 111.568C255.975 117.456 257.682 122.107 261.095 125.52C264.508 128.933 268.818 130.64 274.023 130.64C280.85 130.64 286.012 127.483 289.511 121.168L304.999 129.616C302.524 135.077 298.556 139.344 293.095 142.416C287.719 145.488 281.404 147.024 274.151 147.024ZM334.032 76.112C344.699 76.112 352.891 78.672 358.608 83.792C364.325 88.8267 367.184 96.464 367.184 106.704V146H348.496V137.424C344.741 143.824 337.744 147.024 327.504 147.024C322.213 147.024 317.605 146.128 313.68 144.336C309.84 142.544 306.896 140.069 304.848 136.912C302.8 133.755 301.776 130.171 301.776 126.16C301.776 119.76 304.165 114.725 308.944 111.056C313.808 107.387 321.275 105.552 331.344 105.552H347.216C347.216 101.2 345.893 97.872 343.248 95.568C340.603 93.1787 336.635 91.984 331.344 91.984C327.675 91.984 324.048 92.5813 320.464 93.776C316.965 94.8853 313.979 96.4213 311.504 98.384L304.336 84.432C308.091 81.7867 312.571 79.7387 317.776 78.288C323.067 76.8373 328.485 76.112 334.032 76.112ZM332.496 133.584C335.909 133.584 338.939 132.816 341.584 131.28C344.229 129.659 346.107 127.312 347.216 124.24V117.2H333.52C325.328 117.2 321.232 119.888 321.232 125.264C321.232 127.824 322.213 129.872 324.176 131.408C326.224 132.859 328.997 133.584 332.496 133.584ZM445.91 51.024V146H426.838V138.064C421.889 144.037 414.721 147.024 405.334 147.024C398.849 147.024 392.961 145.573 387.67 142.672C382.465 139.771 378.369 135.632 375.382 130.256C372.395 124.88 370.902 118.651 370.902 111.568C370.902 104.485 372.395 98.256 375.382 92.88C378.369 87.504 382.465 83.3653 387.67 80.464C392.961 77.5627 398.849 76.112 405.334 76.112C414.123 76.112 420.993 78.8853 425.942 84.432V51.024H445.91ZM408.79 130.64C413.825 130.64 418.006 128.933 421.334 125.52C424.662 122.021 426.326 117.371 426.326 111.568C426.326 105.765 424.662 101.157 421.334 97.744C418.006 94.2453 413.825 92.496 408.79 92.496C403.67 92.496 399.446 94.2453 396.118 97.744C392.79 101.157 391.126 105.765 391.126 111.568C391.126 117.371 392.79 122.021 396.118 125.52C399.446 128.933 403.67 130.64 408.79 130.64ZM486.919 147.024C479.666 147.024 473.138 145.531 467.335 142.544C461.618 139.472 457.138 135.248 453.895 129.872C450.652 124.496 449.031 118.395 449.031 111.568C449.031 104.741 450.652 98.64 453.895 93.264C457.138 87.888 461.618 83.7067 467.335 80.72C473.138 77.648 479.666 76.112 486.919 76.112C494.172 76.112 500.658 77.648 506.375 80.72C512.092 83.7067 516.572 87.888 519.815 93.264C523.058 98.64 524.679 104.741 524.679 111.568C524.679 118.395 523.058 124.496 519.815 129.872C516.572 135.248 512.092 139.472 506.375 142.544C500.658 145.531 494.172 147.024 486.919 147.024ZM486.919 130.64C492.039 130.64 496.22 128.933 499.463 125.52C502.791 122.021 504.455 117.371 504.455 111.568C504.455 105.765 502.791 101.157 499.463 97.744C496.22 94.2453 492.039 92.496 486.919 92.496C481.799 92.496 477.575 94.2453 474.247 97.744C470.919 101.157 469.255 105.765 469.255 111.568C469.255 117.371 470.919 122.021 474.247 125.52C477.575 128.933 481.799 130.64 486.919 130.64ZM546.858 86.224C549.247 82.896 552.447 80.3787 556.458 78.672C560.554 76.9653 565.247 76.112 570.538 76.112V94.544C568.319 94.3733 566.826 94.288 566.058 94.288C560.341 94.288 555.861 95.9093 552.618 99.152C549.375 102.309 547.754 107.088 547.754 113.488V146H527.786V77.136H546.858V86.224Z" fill="url(#paint0_linear_1_54)"/>
<path d="M582.384 147.512C580.635 147.512 579.163 146.915 577.968 145.72C576.773 144.525 576.176 143.032 576.176 141.24C576.176 139.405 576.773 137.933 577.968 136.824C579.163 135.672 580.635 135.096 582.384 135.096C584.133 135.096 585.605 135.672 586.8 136.824C587.995 137.933 588.592 139.405 588.592 141.24C588.592 143.032 587.995 144.525 586.8 145.72C585.605 146.915 584.133 147.512 582.384 147.512ZM606.441 147.512C602.771 147.512 599.465 146.765 596.521 145.272C593.619 143.736 591.337 141.624 589.673 138.936C588.051 136.248 587.241 133.197 587.241 129.784C587.241 126.371 588.051 123.32 589.673 120.632C591.337 117.944 593.619 115.853 596.521 114.36C599.465 112.824 602.771 112.056 606.441 112.056C610.067 112.056 613.225 112.824 615.913 114.36C618.643 115.853 620.627 118.008 621.865 120.824L614.121 124.984C612.329 121.827 609.747 120.248 606.377 120.248C603.774 120.248 601.619 121.101 599.913 122.808C598.206 124.515 597.353 126.84 597.353 129.784C597.353 132.728 598.206 135.053 599.913 136.76C601.619 138.467 603.774 139.32 606.377 139.32C609.79 139.32 612.371 137.741 614.121 134.584L621.865 138.808C620.627 141.539 618.643 143.672 615.913 145.208C613.225 146.744 610.067 147.512 606.441 147.512ZM622.243 99.512H632.227V147H622.243V99.512Z" fill="#848484"/>
<path d="M34.4519 35.1168H9.36853V148.271H34.4519V35.1168Z" fill="url(#paint1_linear_1_54)"/>
<path d="M12.8133 58.4499C19.2848 52.6863 28.967 45.8859 34.4519 37.3743V35.1168H9.36853V61.8334C10.4109 60.7074 11.548 59.5759 12.8133 58.4499Z" fill="url(#paint2_linear_1_54)"/>
<path d="M19.1344 105.646C23.5324 101.727 29.4186 97.3292 34.4576 92.2456V60.6907C32.5679 64.9047 29.2514 70.2391 23.4487 75.4063C19.4187 78.9904 14.1289 83.0038 9.37418 87.5857V117.808C11.3697 114.107 14.4299 109.826 19.1344 105.646Z" fill="url(#paint3_linear_1_54)"/>
<path d="M15.0653 148.271H34.452V126.883C27.3784 132.764 18.8668 139.72 15.0653 148.271Z" fill="url(#paint4_linear_1_54)"/>
<path d="M21.0741 31.2149C29.6939 31.2149 36.6815 24.2272 36.6815 15.6074C36.6815 6.98769 29.6939 0 21.0741 0C12.4544 0 5.46667 6.98769 5.46667 15.6074C5.46667 24.2272 12.4544 31.2149 21.0741 31.2149Z" fill="url(#paint5_linear_1_54)"/>
<path opacity="0.3" d="M27.5456 11.7167L31.7931 4.26975C28.9949 1.62763 25.2268 0 21.0741 0C12.4566 0 5.46667 6.9899 5.46667 15.6074C5.46667 18.7234 6.38082 21.6219 7.95271 24.0578C15.9014 23.5617 23.3149 19.1358 27.5456 11.7167Z" fill="url(#paint6_linear_1_54)"/>
<path d="M42.2 112.039C34.9537 89.4641 9.31288 62.9872 9.36863 35.1168C9.36863 35.1168 -8.12287 47.965 4.82574 76.8499C20.6339 112.117 34.8478 134.335 34.452 148.271C48.9502 137.959 46.3639 124.999 42.2 112.039Z" fill="#F6F6F6"/>
<path d="M4.83128 77.1231C18.9058 108.516 31.7876 129.074 34.0841 143.388C39.3683 134.759 38.2089 123.327 33.9782 113.985C30.6337 106.599 24.2235 96.7049 12.5179 80.122C5.81789 70.6293 -0.257861 60.6628 1.82127 46.3318C-0.681491 53.1601 -1.37825 63.2715 4.83128 77.1231Z" fill="#D02A1E"/>
<path opacity="0.4" d="M28.9615 112.875C25.617 105.49 19.2068 95.5956 7.50122 79.0127C7.42876 78.9068 7.35072 78.8009 7.27826 78.6949C18.5212 102.926 28.5267 120.239 32.2948 133.092C33.2646 126.398 31.8098 119.163 28.9615 112.875Z" fill="#D02A1E"/>
<path d="M45.3438 107.585C37.0719 86.1364 10.0152 60.4733 9.37422 35.1112C9.37422 35.1112 -1.64575 53.8736 16.7041 78.8678C42.4843 113.985 47.4062 128.198 34.4576 148.265C48.3315 139.441 50.0929 119.904 45.3438 107.585Z" fill="#D02A1E"/>
<path d="M45.7117 107.402C37.4398 85.9524 10.0097 60.4788 9.36867 35.1167C9.36867 35.1167 9.34638 34.9774 8.54371 36.8559C8.48797 38.1769 8.48239 39.4757 8.53256 40.7633C9.58048 69.1298 34.9927 89.0405 42.5679 108.695C47.0495 120.317 46.8265 138.371 35.0039 147.786C34.9426 147.886 34.5134 148.17 34.4465 148.271C48.3315 139.447 50.4608 119.715 45.7117 107.402Z" fill="#D02A1E"/>
<defs>
<linearGradient id="paint0_linear_1_54" x1="310" y1="22" x2="310" y2="148" gradientUnits="userSpaceOnUse">
<stop stop-color="#0F4DD2"/>
<stop offset="1" stop-color="#17377A"/>
</linearGradient>
<linearGradient id="paint1_linear_1_54" x1="-8.00773" y1="17.1295" x2="53.3021" y2="169.918" gradientUnits="userSpaceOnUse">
<stop stop-color="#0E5DEC"/>
<stop offset="0.3103" stop-color="#0F4ED4"/>
<stop offset="0.9631" stop-color="#102697"/>
<stop offset="1" stop-color="#102493"/>
</linearGradient>
<linearGradient id="paint2_linear_1_54" x1="15.9307" y1="-5.26438" x2="37.3154" y2="88.8894" gradientUnits="userSpaceOnUse">
<stop stop-color="#102493"/>
<stop offset="0.0369" stop-color="#102697"/>
<stop offset="0.6897" stop-color="#0F4ED4"/>
<stop offset="1" stop-color="#0E5DEC"/>
</linearGradient>
<linearGradient id="paint3_linear_1_54" x1="16.7837" y1="43.1706" x2="38.1686" y2="137.325" gradientUnits="userSpaceOnUse">
<stop stop-color="#102493"/>
<stop offset="0.0369" stop-color="#102697"/>
<stop offset="0.6897" stop-color="#0F4ED4"/>
<stop offset="1" stop-color="#0E5DEC"/>
</linearGradient>
<linearGradient id="paint4_linear_1_54" x1="19.8625" y1="93.5818" x2="41.2473" y2="187.736" gradientUnits="userSpaceOnUse">
<stop stop-color="#102493"/>
<stop offset="0.0369" stop-color="#102697"/>
<stop offset="0.6897" stop-color="#0F4ED4"/>
<stop offset="1" stop-color="#0E5DEC"/>
</linearGradient>
<linearGradient id="paint5_linear_1_54" x1="5.46874" y1="15.6058" x2="36.6836" y2="15.6058" gradientUnits="userSpaceOnUse">
<stop stop-color="#0E5DEC"/>
<stop offset="0.3103" stop-color="#0F4ED4"/>
<stop offset="0.9631" stop-color="#102697"/>
<stop offset="1" stop-color="#102493"/>
</linearGradient>
<linearGradient id="paint6_linear_1_54" x1="139.857" y1="-11.976" x2="-110.376" y2="35.8551" gradientUnits="userSpaceOnUse">
<stop stop-color="#102493"/>
<stop offset="0.0369" stop-color="#102697"/>
<stop offset="0.6897" stop-color="#0F4ED4"/>
<stop offset="1" stop-color="#0E5DEC"/>
</linearGradient>
</defs>
</svg>
